:version 1.10
:name ASF
:units
  mass 1
  length 1
  angle deg
:documentation
  ASF file generated by Kaydara
:root
  axis xyz
  order  tx ty tz rx ry rz
  position 0 0 0
  orientation 0 0 0
:bonedata
  begin
    id 1
    name RightUpLegDummy
    direction -1 2.30186e-007 8.31532e-007
    length 4.04083
    axis 0 0 0 xyz
  end
  begin
    id 2
    name RightUpLeg
    direction -0.000919234 -0.999985 0.00544864
    length 17.4221
    axis -3.80308 -0.00076134 -0.0523649 xyz
    dof rx ry rz
  end
  begin
    id 3
    name RightLeg
    direction -0.000919271 -0.999984 -0.00555045
    length 17.1239
    axis 4.00314 0.0181274 -0.183583 xyz
    dof rx ry rz
  end
  begin
    id 4
    name RightFoot
    direction -2.57843e-005 -4.04509e-007 1
    length 6.72091
    axis 8.18909e-005 -0.122003 -0.403008 xyz
    dof rx ry rz
  end
  begin
    id 5
    name RightToes
    direction 0.00116825 -0.014069 0.9999
    length 3.85082
    axis 0.000514414 0.540638 -0.356797 xyz
    dof rx ry rz
  end
  begin
    id 6
    name SpineDummy
    direction 0.0168869 0.966876 -0.254689
    length 6.99894
    axis 0 0 0 xyz
  end
  begin
    id 7
    name Spine
    direction -0.0132008 0.999903 0.00446247
    length 11.1999
    axis -0.00148109 0.00725429 0.756411 xyz
    dof rx ry rz
  end
  begin
    id 8
    name Spine1
    direction 0 0 0
    length 0
    axis -0.000934958 0.0245693 1.46543 xyz
    dof rx ry rz
  end
  begin
    id 9
    name HEadDummy
    direction -0.0255732 0.999672 0.00128215
    length 3.43865
    axis -0.000934958 0.0245693 1.46543 xyz
  end
  begin
    id 10
    name HEad
    direction -0.0472656 0.980052 0.19304
    length 5.12695
    axis -0.000934954 0.0245693 1.46543 xyz
    dof rx ry rz
  end
  begin
    id 11
    name LeftShoulder1Dummy
    direction 0.953098 0.301717 -0.023914
    length 3.68488
    axis -0.000934958 0.0245693 1.46543 xyz
  end
  begin
    id 12
    name LeftShoulder1
    direction 0.962466 0.271167 0.0112566
    length 3.13809
    axis -0.000934958 0.0245693 1.46543 xyz
    dof rx ry rz
  end
  begin
    id 13
    name LeftArm
    direction 0.999943 0.00455037 -0.00961766
    length 11.3419
    axis -23.1648 0.685459 1.22814 xyz
    dof rx ry rz
  end
  begin
    id 14
    name LeftForeArm
    direction 0.999332 0.0131969 0.0340885
    length 8.70632
    axis -9.90633 0.618216 0.0826942 xyz
    dof rx ry rz
  end
  begin
    id 15
    name LeftHand
    direction 0.994373 -0.0366703 0.0993905
    length 5.32135
    axis 0.00675269 0.680415 0.445699 xyz
    dof rx ry rz
  end
  begin
    id 16
    name RightShoulderDummy
    direction -0.967298 0.252589 -0.0230903
    length 3.68488
    axis -0.000934958 0.0245693 1.46543 xyz
  end
  begin
    id 17
    name RightShoulder
    direction -0.975062 0.221602 0.0120823
    length 3.13809
    axis 0.216257 0.0246515 1.45863 xyz
    dof rx ry rz
  end
  begin
    id 18
    name RightArm
    direction -0.99886 -0.00851186 -0.0469687
    length 10.3947
    axis -23.196 0.23503 -0.532632 xyz
    dof rx ry rz
  end
  begin
    id 19
    name RightForeArm
    direction -0.99909 0.00114866 0.0426317
    length 8.68355
    axis -9.91764 -0.134943 0.610517 xyz
    dof rx ry rz
  end
  begin
    id 20
    name RightHand
    direction -0.992888 -0.0489538 0.10852
    length 5.28593
    axis -0.00275396 -0.197403 0.246414 xyz
    dof rx ry rz
  end
  begin
    id 21
    name LeftUpLegDummy
    direction 1 -2.30186e-007 -8.31532e-007
    length 4.04083
    axis 0 0 0 xyz
  end
  begin
    id 22
    name LeftUpLeg
    direction -0.000920097 -1 2.79241e-006
    length 17.4221
    axis -3.48782 0.00143434 -0.0532288 xyz
    dof rx ry rz
  end
  begin
    id 23
    name LeftLeg
    direction -0.000920097 -1 2.7912e-006
    length 17.1239
    axis 3.68162 -0.00806512 -0.0529896 xyz
    dof rx ry rz
  end
  begin
    id 24
    name LeftFoot
    direction -2.57845e-005 -3.987e-007 1
    length 6.72091
    axis 3.02372e-005 -0.00147829 -0.214229 xyz
    dof rx ry rz
  end
  begin
    id 25
    name LeftToes
    direction 0.00813577 -0.00488255 0.999955
    length 3.85048
    axis 3.89895e-005 -0.0014783 -0.214229 xyz
    dof rx ry rz
  end
:hierarchy
  begin
    root RightUpLegDummy SpineDummy LeftUpLegDummy
    RightUpLegDummy RightUpLeg
    RightUpLeg RightLeg
    RightLeg RightFoot
    RightFoot RightToes
    SpineDummy Spine
    Spine Spine1
    Spine1 HEadDummy LeftShoulder1Dummy RightShoulderDummy
    HEadDummy HEad
    LeftShoulder1Dummy LeftShoulder1
    LeftShoulder1 LeftArm
    LeftArm LeftForeArm
    LeftForeArm LeftHand
    RightShoulderDummy RightShoulder
    RightShoulder RightArm
    RightArm RightForeArm
    RightForeArm RightHand
    LeftUpLegDummy LeftUpLeg
    LeftUpLeg LeftLeg
    LeftLeg LeftFoot
    LeftFoot LeftToes
  end

:SAMPLES-PER-SECOND 30
:FULLY-SPECIFIED
:DEGREES
76
root  -36.2526 34.9318 1.81286 -165.867 74.6994 -173.486
RightUpLeg  -9.14665 -8.37002 -2.05079
RightLeg  4.70511 2.14313 0.0392082
RightFoot  9.52728 0.0155428 0.486962
RightToes  -28.2926 -0.130454 -0.230028
Spine  -2.15602 0.604287 -1.64829
Spine1  -4.22728 1.25946 -2.58873
HEad  -66.771 -12.2326 6.29489
LeftShoulder1  -1.94126e-019 -3.10601e-018 -2.51263e-017
LeftArm  -21.7801 20.5094 -68.6779
LeftForeArm  36.8229 -76.9801 -58.1672
LeftHand  -0.11177 3.87041 7.40681
RightShoulder  -4.96962e-017 0 -2.36833e-017
RightArm  -31.8307 -15.8344 67.2972
RightForeArm  62.4096 77.9972 53.6857
RightHand  -0.194972 -2.761 -8.14908
LeftUpLeg  -8.25219 9.94533 -4.1374
LeftLeg  9.82842 21.0506 2.21391
LeftFoot  -1.15628 -0.00346409 -0.286034
LeftToes  -6.26932 1.89912e-006 4.45198e-008
77
root  -36.2446 34.9362 1.84792 -165.935 74.6493 -173.544
RightUpLeg  -9.11187 -8.36278 -2.00103
RightLeg  4.6764 2.08094 0.0370505
RightFoot  9.52522 0.015452 0.476786
RightToes  -28.2599 -0.130188 -0.230094
Spine  -2.20562 0.594246 -1.61399
Spine1  -4.32391 1.23794 -2.51745
HEad  -66.5992 -12.2759 6.35742
LeftShoulder1  -1.94126e-019 -3.10601e-018 -2.51263e-017
LeftArm  -20.941 20.2402 -68.4097
LeftForeArm  34.8189 -76.2818 -52.5348
LeftHand  -0.130428 3.02365 5.8017
RightShoulder  -4.96962e-017 0 -2.36833e-017
RightArm  -30.2695 -15.7645 66.5109
RightForeArm  61.673 77.6172 50.4269
RightHand  -0.220601 -2.31174 -7.99873
LeftUpLeg  -8.23117 9.92241 -4.08196
LeftLeg  9.79356 21.0225 2.19846
LeftFoot  -1.08191 -0.00394685 -0.256471
LeftToes  -6.35556 1.89912e-006 4.45198e-008
78
root  -36.2275 34.9417 1.88731 -165.996 74.6312 -173.6
RightUpLeg  -8.99067 -8.31011 -1.95287
RightLeg  4.48602 2.00931 0.0291071
RightFoot  9.53 0.0153776 0.465278
RightToes  -28.0271 -0.12992 -0.23021
Spine  -2.26398 0.577258 -1.58412
Spine1  -4.43546 1.2016 -2.45368
HEad  -66.2924 -12.2548 6.36486
LeftShoulder1  -1.94126e-019 -3.10601e-018 -2.51263e-017
LeftArm  -18.7566 19.8739 -67.6839
LeftForeArm  33.4403 -74.947 -44.5423
LeftHand  -0.160138 1.90026 5.08623
RightShoulder  -4.96962e-017 0 -2.36833e-017
RightArm  -28.0003 -15.5879 65.6635
RightForeArm  59.3218 76.6195 44.2991
RightHand  -0.258275 -1.66487 -7.87291
LeftUpLeg  -8.17966 9.81822 -4.01815
LeftLeg  9.72087 21.1057 2.18034
LeftFoot  -0.958125 -0.00310557 -0.209868
LeftToes  -6.6533 1.89912e-006 4.45198e-008
79
root  -36.2002 34.9491 1.93373 -166.03 74.745 -173.63
RightUpLeg  -8.84692 -8.20366 -1.89913
RightLeg  4.22254 2.00731 0.0198155
RightFoot  9.60356 0.0143012 0.466973
RightToes  -27.9632 -0.129655 -0.230363
Spine  -2.34228 0.558302 -1.54912
Spine1  -4.58933 1.15754 -2.37748
HEad  -65.8022 -11.8582 6.36781
LeftShoulder1  -1.94126e-019 -3.10601e-018 -2.51263e-017
LeftArm  -15.5219 19.6209 -66.5566
LeftForeArm  30.8545 -72.6175 -35.9766
LeftHand  -0.173166 1.36798 4.86071
RightShoulder  -4.96962e-017 0 -2.36833e-017
RightArm  -24.6414 -15.1659 64.86
RightForeArm  55.3681 74.3914 35.4734
RightHand  -0.326422 -0.919888 -8.42196
LeftUpLeg  -8.08131 9.8278 -3.95241
LeftLeg  9.58733 21.1967 2.14058
LeftFoot  -0.843993 -0.00279349 -0.16694
LeftToes  -6.8049 1.89912e-006 4.45198e-008
80
root  -36.1635 34.9581 1.98161 -166.066 74.9487 -173.649
RightUpLeg  -8.68543 -8.15754 -1.84529
RightLeg  3.947 2.15907 0.0108319
RightFoot  9.68039 0.0114011 0.493591
RightToes  -27.9435 -0.129396 -0.23054
Spine  -2.40843 0.534201 -1.49391
Spine1  -4.72324 1.10152 -2.25988
HEad  -65.3636 -11.3617 6.29857
LeftShoulder1  -1.94126e-019 -3.10601e-018 -2.51263e-017
LeftArm  -12.067 19.368 -65.5173
LeftForeArm  25.7644 -68.8638 -28.0428
LeftHand  -0.170821 1.25829 4.67834
RightShoulder  -4.96962e-017 0 -2.36833e-017
RightArm  -20.5421 -14.5047 64.2235
RightForeArm  50.0841 70.6599 27.0117
RightHand  -0.351067 -0.658495 -8.59102
LeftUpLeg  -7.89822 9.69896 -3.89159
LeftLeg  9.361 21.5237 2.08829
LeftFoot  -0.733698 -0.0018604 -0.129019
LeftToes  -6.75571 1.89912e-006 4.45198e-008
81
root  -36.128 34.9658 2.05094 -165.971 75.4454 -173.473
RightUpLeg  -8.5672 -7.5778 -1.77203
RightLeg  3.78336 2.0642 0.0044726
RightFoot  9.71038 0.0113362 0.478561
RightToes  -27.8121 -0.129149 -0.230728
Spine  -2.4482 0.609476 -1.43045
Spine1  -4.81258 1.24447 -2.1314
HEad  -65.02 -10.8464 6.21827
LeftShoulder1  -1.94126e-019 -3.10601e-018 -2.51263e-017
LeftArm  -8.54414 18.8694 -64.8022
LeftForeArm  20.6018 -63.3337 -21.0704
LeftHand  -0.157533 1.02152 4.09519
RightShoulder  -4.96962e-017 0 -2.36833e-017
RightArm  -16.0496 -13.6682 64.0674
RightForeArm  45.3493 65.258 19.9277
RightHand  -0.347317 -0.585988 -8.37771
LeftUpLeg  -7.60885 9.97001 -3.79017
LeftLeg  9.02967 21.7551 1.98591
LeftFoot  -0.558518 -0.00109285 -0.0626915
LeftToes  -7.0241 1.89912e-006 4.45198e-008
82
root  -36.0787 34.9686 2.11146 -166.079 75.7816 -173.488
RightUpLeg  -8.42242 -7.41005 -1.72174
RightLeg  3.68617 2.20731 0.000972031
RightFoot  9.66679 0.00864003 0.49996
RightToes  -27.7111 -0.128481 -0.230914
Spine  -2.4606 0.642973 -1.38508
Spine1  -4.85411 1.3039 -2.03739
HEad  -64.8112 -10.324 6.35763
LeftShoulder1  -1.94126e-019 -3.10601e-018 -2.51263e-017
LeftArm  -4.92101 18.5213 -64.5056
LeftForeArm  18.7025 -56.9731 -15.885
LeftHand  -0.146285 0.778807 3.62148
RightShoulder  -4.96962e-017 0 -2.36833e-017
RightArm  -11.4477 -12.8455 64.5254
RightForeArm  42.7669 58.3162 14.4098
RightHand  -0.327737 -0.639629 -7.98604
LeftUpLeg  -7.25535 10.1263 -3.71287
LeftLeg  8.64633 21.9032 1.85482
LeftFoot  -0.334292 -0.000396648 0.0255259
LeftToes  -7.43196 1.89912e-006 4.45198e-008
83
root  -36.023 34.9721 2.1754 -166.13 76.0467 -173.516
RightUpLeg  -8.37296 -7.24174 -1.65259
RightLeg  3.69166 2.28104 0.00119911
RightFoot  9.54881 0.0068316 0.5075
RightToes  -27.4422 -0.127719 -0.231084
Spine  -2.50369 0.666458 -1.33581
Spine1  -4.96329 1.34587 -1.93723
HEad  -64.291 -10.0046 6.83461
LeftShoulder1  -1.94126e-019 -3.10601e-018 -2.51263e-017
LeftArm  -1.52318 18.4456 -64.8854
LeftForeArm  20.9747 -49.6759 -11.6642
LeftHand  -0.165943 0.0371185 3.62776
RightShoulder  -4.96962e-017 0 -2.36833e-017
RightArm  -6.68359 -12.4093 65.6406
RightForeArm  43.2871 50.1106 10.1362
RightHand  -0.325132 -0.506631 -7.71991
LeftUpLeg  -6.98778 10.2976 -3.62417
LeftLeg  8.28529 22.0157 1.72777
LeftFoot  -0.149991 -8.18786e-005 0.0988283
LeftToes  -7.97114 1.89912e-006 4.45198e-008
84
root  -35.9671 34.9744 2.23906 -166.267 76.1508 -173.672
RightUpLeg  -8.34896 -7.23552 -1.58814
RightLeg  3.71972 2.37068 0.0023827
RightFoot  9.41743 0.00481355 0.51684
RightToes  -27.3347 -0.126887 -0.231226
Spine  -2.52191 0.702123 -1.25379
Spine1  -5.02165 1.4158 -1.77325
HEad  -63.3357 -10.5314 7.29412
LeftShoulder1  -1.94126e-019 -3.10601e-018 -2.51263e-017
LeftArm  0.0503301 18.656 -66.3683
LeftForeArm  27.2728 -41.4557 -8.10625
LeftHand  -0.245171 -1.5815 4.2447
RightShoulder  -4.96962e-017 0 -2.36833e-017
RightArm  -2.61274 -12.4667 67.3204
RightForeArm  46.4598 41.1132 6.8201
RightHand  -0.348721 0.184702 -7.31952
LeftUpLeg  -6.79113 10.3747 -3.54639
LeftLeg  7.98524 22.0317 1.61586
LeftFoot  0.0311142 -2.46726e-006 0.171629
LeftToes  -8.2846 1.89912e-006 4.45198e-008
85
root  -35.8949 34.9698 2.29172 -166.497 76.0213 -173.969
RightUpLeg  -8.30103 -7.51957 -1.52897
RightLeg  3.73431 2.51799 0.00312888
RightFoot  9.24333 0.002228 0.533079
RightToes  -27.3895 -0.126001 -0.231327
Spine  -2.55889 0.735935 -1.13042
Spine1  -5.11931 1.49571 -1.53962
HEad  -62.1554 -11.3442 6.47405
LeftShoulder1  -1.94126e-019 -3.10601e-018 -2.51263e-017
LeftArm  -3.76229 19.7838 -69.2643
LeftForeArm  35.1304 -33.0715 -5.30568
LeftHand  -0.410167 -2.71387 6.0996
RightShoulder  -4.96962e-017 0 -2.36833e-017
RightArm  -0.0662356 -13.4513 69.3648
RightForeArm  52.3572 32.1918 4.23135
RightHand  -0.389512 1.33213 -6.86823
LeftUpLeg  -6.67504 10.4937 -3.47666
LeftLeg  7.78138 21.7896 1.52297
LeftFoot  0.110599 -0.000128673 0.201866
LeftToes  -8.45933 1.89912e-006 4.45198e-008
